# 
# Generated by Sweet Home 3D - Sun Aug 03 21:42:34 IDT 2025
# http://www.sweethome3d.com/
# 
mtllib living_room.mtl
g wall_1_1
usemtl wall_1_1
v 494.90002 0.0 -0.040771484
v 494.2779 0.0 9.847767
v 493.79388 0.0 19.743814
v 493.44812 0.0 29.645823
v 493.2406 0.0 39.551525
v 493.17145 0.0 49.459328
v 493.2406 0.0 59.366962
v 493.44812 0.0 69.272835
v 493.79388 0.0 79.174675
v 494.2779 0.0 89.07089
v 494.90002 0.0 98.95923
v 498.95712 0.0 102.76904
v 498.08197 0.0 88.85821
v 497.60056 0.0 79.01513
v 497.25662 0.0 69.16645
v 497.05023 0.0 59.313766
v 496.98145 0.0 49.459328
v 497.05023 0.0 39.60472
v 497.25662 0.0 29.752203
v 497.60056 0.0 19.90336
v 498.08194 0.0 10.060446
v 498.47778 0.0 3.769043
vn 0.0 -1.0 0.0
vn 0.0 0.0 0.0
f 2//1 1//1 22//1
f 2//1 22//1 21//1
f 2//1 21//1 20//1
f 2//1 20//1 19//1
f 2//1 19//1 18//1
f 2//1 18//1 17//1
f 2//1 17//1 16//1
f 2//1 16//1 15//1
f 2//1 15//1 14//1
f 3//1 2//1 14//1
f 3//1 14//1 13//1
f 4//1 3//1 13//1
f 4//1 13//1 12//1
f 4//1 12//1 11//1
f 4//1 11//1 10//1
f 4//1 10//1 9//1
f 4//1 9//1 8//1
f 4//1 8//1 7//1
f 4//1 7//1 6//1
f 4//1 6//1 5//1
g wall_1_2
usemtl wall_1_1
v 491.3223 0.0 -3.850586
v 490.47385 0.0 9.635088
v 489.98724 0.0 19.584269
v 489.6396 0.0 29.539442
v 489.431 0.0 39.49833
v 489.36145 0.0 49.459328
v 489.431 0.0 59.42016
v 489.63962 0.0 69.37922
v 489.98724 0.0 79.33422
v 490.47385 0.0 89.28357
v 490.8429 0.0 95.149414
f 24//1 23//1 1//1
f 24//1 1//1 2//1
f 24//1 2//1 3//1
f 24//1 3//1 4//1
f 24//1 4//1 5//1
f 24//1 5//1 6//1
f 24//1 6//1 7//1
f 24//1 7//1 8//1
f 24//1 8//1 9//1
f 25//1 24//1 9//1
f 25//1 9//1 10//1
f 26//1 25//1 10//1
f 26//1 10//1 11//1
f 26//1 11//1 33//1
f 26//1 33//1 32//1
f 26//1 32//1 31//1
f 26//1 31//1 30//1
f 26//1 30//1 29//1
f 26//1 29//1 28//1
f 26//1 28//1 27//1
g wall_1_3
usemtl wall_1_1
v 498.95712 243.84 102.76904
v 494.90002 243.84 98.95923
v 498.08197 243.84 88.85821
v 497.60056 243.84 79.01513
v 497.25662 243.84 69.16645
v 497.05023 243.84 59.313766
v 496.98145 243.84 49.459328
v 497.05023 243.84 39.60472
v 497.25662 243.84 29.752203
v 497.60056 243.84 19.90336
v 498.08194 243.84 10.060446
v 498.47778 243.84 3.769043
v 494.90002 243.84 -0.040771484
vn -0.68454194 0.0 0.7289735
vn 0.9980269 0.0 -0.06278744
vn 0.9984408 0.0 -0.05582037
vn 0.9991228 0.0 -0.041876547
vn 0.99961007 0.0 -0.027922437
vn 0.99990255 0.0 -0.013961907
vn 1.0 0.0 -0.0000001
vn 0.99990255 0.0 0.013962024
vn 0.99961007 0.0 0.027922321
vn 0.99912286 0.0 0.041875113
vn 0.9984407 0.0 0.055822503
vn 0.9980265 0.0 0.06279399
vn 0.7289586 0.0 -0.68455774
f 11//3 12//3 34//3 35//3
f 12//4 13//5 36//5 34//4
f 13//5 14//6 37//6 36//5
f 14//6 15//7 38//7 37//6
f 15//7 16//8 39//8 38//7
f 16//8 17//9 40//9 39//8
f 17//9 18//10 41//10 40//9
f 18//10 19//11 42//11 41//10
f 19//11 20//12 43//12 42//11
f 20//12 21//13 44//13 43//12
f 21//13 22//14 45//14 44//13
f 22//15 1//15 46//15 45//15
g wall_1_4
usemtl wall_1_1
v 490.47385 243.84 9.635088
v 491.3223 243.84 -3.850586
v 489.98724 243.84 19.584269
v 489.6396 243.84 29.539442
v 489.431 243.84 39.49833
v 489.36145 243.84 49.459328
v 489.431 243.84 59.42016
v 489.63962 243.84 69.37922
v 489.98724 243.84 79.33422
v 490.47385 243.84 89.28357
v 490.8429 243.84 95.149414
vn -0.9980267 0.0 -0.06279074
vn -0.9984408 0.0 -0.055821955
vn -0.9991228 0.0 -0.04187669
vn -0.9996101 0.0 -0.027921269
vn -0.99990255 0.0 -0.01396149
vn -1.0 0.0 0.0000001
vn -0.9999025 0.0 0.013962899
vn -0.9996101 0.0 0.02792139
vn -0.99912286 0.0 0.041875046
vn -0.99844074 0.0 0.05582155
vn -0.9048247 0.0 0.4257843
vn -0.6845392 0.0 0.7289761
vn 0.7289615 0.0 -0.68455464
f 23//16 24//17 47//17 48//16
f 24//17 25//18 49//18 47//17
f 25//18 26//19 50//19 49//18
f 26//19 27//20 51//20 50//19
f 27//20 28//21 52//21 51//20
f 28//21 29//22 53//22 52//21
f 29//22 30//23 54//23 53//22
f 30//23 31//24 55//24 54//23
f 31//24 32//25 56//25 55//24
f 32//25 33//26 57//26 56//25
f 33//26 11//27 35//27 57//26
f 1//28 23//28 48//28 46//28
g wall_1_5
usemtl wall_1_1
v 494.2779 243.84 9.847767
v 493.79388 243.84 19.743814
v 493.44812 243.84 29.645823
v 493.2406 243.84 39.551525
v 493.17145 243.84 49.459328
v 493.2406 243.84 59.366962
v 493.44812 243.84 69.272835
v 493.79388 243.84 79.174675
v 494.2779 243.84 89.07089
vn 0.0 1.0 0.0
f 44//29 45//29 46//29
f 44//29 46//29 58//29
f 44//29 58//29 59//29
f 44//29 59//29 60//29
f 44//29 60//29 61//29
f 44//29 61//29 62//29
f 44//29 62//29 63//29
f 44//29 63//29 64//29
f 44//29 64//29 65//29
f 43//29 44//29 65//29
f 43//29 65//29 66//29
f 42//29 43//29 66//29
f 42//29 66//29 35//29
f 41//29 42//29 35//29
f 40//29 41//29 35//29
f 39//29 40//29 35//29
f 38//29 39//29 35//29
f 37//29 38//29 35//29
f 36//29 37//29 35//29
f 36//29 35//29 34//29
g wall_1_6
usemtl wall_1_1
f 58//29 46//29 48//29
f 58//29 48//29 47//29
f 58//29 47//29 49//29
f 58//29 49//29 50//29
f 58//29 50//29 51//29
f 58//29 51//29 52//29
f 58//29 52//29 53//29
f 58//29 53//29 54//29
f 58//29 54//29 55//29
f 59//29 58//29 55//29
f 59//29 55//29 56//29
f 59//29 56//29 57//29
f 60//29 59//29 57//29
f 61//29 60//29 57//29
f 62//29 61//29 57//29
f 63//29 62//29 57//29
f 64//29 63//29 57//29
f 65//29 64//29 57//29
f 66//29 65//29 57//29
f 66//29 57//29 35//29
